<svg width="179" height="50" viewBox="0 0 179 50" fill="none" xmlns="http://www.w3.org/2000/svg">
<path d="M164.629 16.3638H167.699V21.0747L167.512 23.1606H167.699C168.027 22.6138 168.496 22.1685 169.105 21.8247C169.73 21.4653 170.426 21.2856 171.191 21.2856C172.676 21.2856 173.77 21.7231 174.473 22.5981C175.191 23.4731 175.551 24.6685 175.551 26.1841V33.145H172.48V26.5591C172.48 25.7622 172.293 25.1606 171.918 24.7544C171.543 24.3325 171.02 24.1216 170.348 24.1216C169.926 24.1216 169.551 24.2153 169.223 24.4028C168.895 24.5747 168.613 24.8169 168.379 25.1294C168.16 25.4419 167.988 25.8091 167.863 26.231C167.754 26.6372 167.699 27.0747 167.699 27.5435V33.145H164.629V16.3638Z" fill="white"/>
<path d="M163.459 30.2153C162.959 31.1841 162.256 31.981 161.35 32.606C160.459 33.2153 159.342 33.52 157.998 33.52C157.107 33.52 156.287 33.3716 155.537 33.0747C154.803 32.7622 154.162 32.3325 153.615 31.7856C153.084 31.2388 152.662 30.5981 152.35 29.8638C152.053 29.1138 151.904 28.2935 151.904 27.4028C151.904 26.5122 152.053 25.6919 152.35 24.9419C152.662 24.1919 153.084 23.5513 153.615 23.02C154.162 22.4731 154.803 22.0513 155.537 21.7544C156.287 21.4419 157.107 21.2856 157.998 21.2856C159.326 21.2856 160.443 21.5903 161.35 22.1997C162.256 22.8091 162.92 23.5981 163.342 24.5669L160.529 25.7388C160.264 25.2075 159.92 24.8091 159.498 24.5435C159.092 24.2622 158.576 24.1216 157.951 24.1216C157.545 24.1216 157.162 24.1997 156.803 24.356C156.443 24.5122 156.123 24.731 155.842 25.0122C155.576 25.2935 155.365 25.6372 155.209 26.0435C155.053 26.4497 154.975 26.9028 154.975 27.4028C154.975 27.9028 155.053 28.356 155.209 28.7622C155.365 29.1685 155.576 29.5122 155.842 29.7935C156.123 30.0747 156.443 30.2935 156.803 30.4497C157.162 30.606 157.545 30.6841 157.951 30.6841C158.592 30.6841 159.131 30.5435 159.568 30.2622C160.021 29.9653 160.381 29.5435 160.646 28.9966L163.459 30.2153Z" fill="white"/>
<path d="M151.001 30.3794C150.47 31.3169 149.751 32.0747 148.845 32.6528C147.954 33.231 146.86 33.52 145.563 33.52C144.688 33.52 143.876 33.3716 143.126 33.0747C142.392 32.7622 141.751 32.3325 141.204 31.7856C140.657 31.2388 140.228 30.5981 139.915 29.8638C139.618 29.1138 139.47 28.2935 139.47 27.4028C139.47 26.5747 139.618 25.7935 139.915 25.0591C140.212 24.3091 140.626 23.6606 141.157 23.1138C141.688 22.5513 142.313 22.106 143.032 21.7778C143.767 21.4497 144.571 21.2856 145.446 21.2856C146.368 21.2856 147.188 21.4419 147.907 21.7544C148.626 22.0513 149.228 22.4731 149.712 23.02C150.196 23.5513 150.563 24.1841 150.813 24.9185C151.063 25.6528 151.188 26.4497 151.188 27.3091C151.188 27.4185 151.188 27.5122 151.188 27.5903C151.173 27.6841 151.165 27.77 151.165 27.8481C151.149 27.9263 151.142 28.0122 151.142 28.106H142.493C142.556 28.5747 142.681 28.981 142.868 29.3247C143.071 29.6528 143.313 29.9341 143.595 30.1685C143.892 30.3872 144.212 30.5513 144.556 30.6606C144.899 30.7544 145.251 30.8013 145.61 30.8013C146.313 30.8013 146.892 30.645 147.345 30.3325C147.813 30.0044 148.181 29.5981 148.446 29.1138L151.001 30.3794ZM148.212 25.9263C148.196 25.7231 148.126 25.4966 148.001 25.2466C147.892 24.9966 147.72 24.7622 147.485 24.5435C147.267 24.3247 146.985 24.145 146.642 24.0044C146.313 23.8638 145.915 23.7935 145.446 23.7935C144.79 23.7935 144.212 23.981 143.712 24.356C143.212 24.731 142.86 25.2544 142.657 25.9263H148.212Z" fill="white"/>
<path d="M132.979 33.145V19.3638H128.291V16.3638H140.83V19.3638H136.143V33.145H132.979Z" fill="white"/>
<path d="M127.596 30.3794C127.064 31.3169 126.346 32.0747 125.439 32.6528C124.549 33.231 123.455 33.52 122.158 33.52C121.283 33.52 120.471 33.3716 119.721 33.0747C118.986 32.7622 118.346 32.3325 117.799 31.7856C117.252 31.2388 116.822 30.5981 116.51 29.8638C116.213 29.1138 116.064 28.2935 116.064 27.4028C116.064 26.5747 116.213 25.7935 116.51 25.0591C116.807 24.3091 117.221 23.6606 117.752 23.1138C118.283 22.5513 118.908 22.106 119.627 21.7778C120.361 21.4497 121.166 21.2856 122.041 21.2856C122.963 21.2856 123.783 21.4419 124.502 21.7544C125.221 22.0513 125.822 22.4731 126.307 23.02C126.791 23.5513 127.158 24.1841 127.408 24.9185C127.658 25.6528 127.783 26.4497 127.783 27.3091C127.783 27.4185 127.783 27.5122 127.783 27.5903C127.768 27.6841 127.76 27.77 127.76 27.8481C127.744 27.9263 127.736 28.0122 127.736 28.106H119.088C119.15 28.5747 119.275 28.981 119.463 29.3247C119.666 29.6528 119.908 29.9341 120.189 30.1685C120.486 30.3872 120.807 30.5513 121.15 30.6606C121.494 30.7544 121.846 30.8013 122.205 30.8013C122.908 30.8013 123.486 30.645 123.939 30.3325C124.408 30.0044 124.775 29.5981 125.041 29.1138L127.596 30.3794ZM124.807 25.9263C124.791 25.7231 124.721 25.4966 124.596 25.2466C124.486 24.9966 124.314 24.7622 124.08 24.5435C123.861 24.3247 123.58 24.145 123.236 24.0044C122.908 23.8638 122.51 23.7935 122.041 23.7935C121.385 23.7935 120.807 23.981 120.307 24.356C119.807 24.731 119.455 25.2544 119.252 25.9263H124.807Z" fill="white"/>
<path d="M108.59 21.6606H111.473V23.2544H111.66C111.801 22.9731 111.988 22.7153 112.223 22.481C112.457 22.2466 112.715 22.0435 112.996 21.8716C113.293 21.6997 113.605 21.5669 113.934 21.4731C114.277 21.3794 114.613 21.3325 114.941 21.3325C115.348 21.3325 115.691 21.3716 115.973 21.4497C116.27 21.5278 116.52 21.6294 116.723 21.7544L115.902 24.5435C115.715 24.4497 115.504 24.3794 115.27 24.3325C115.051 24.27 114.777 24.2388 114.449 24.2388C114.027 24.2388 113.645 24.3247 113.301 24.4966C112.957 24.6528 112.66 24.8794 112.41 25.1763C112.176 25.4731 111.988 25.8247 111.848 26.231C111.723 26.6216 111.66 27.0513 111.66 27.52V33.145H108.59V21.6606Z" fill="white"/>
<path d="M103.779 31.645H103.592C103.232 32.2231 102.748 32.6841 102.139 33.0278C101.529 33.356 100.834 33.52 100.053 33.52C98.5996 33.52 97.5137 33.0747 96.7949 32.1841C96.0918 31.2935 95.7402 30.106 95.7402 28.6216V21.6606H98.8105V28.2466C98.8105 29.0747 98.9902 29.6919 99.3496 30.0981C99.7246 30.4888 100.264 30.6841 100.967 30.6841C101.389 30.6841 101.756 30.5981 102.068 30.4263C102.396 30.2388 102.67 29.9966 102.889 29.6997C103.123 29.3872 103.295 29.0278 103.404 28.6216C103.529 28.1997 103.592 27.7544 103.592 27.2856V21.6606H106.662V33.145H103.779V31.645Z" fill="white"/>
<path d="M88.3955 24.2856H86.3799V21.6606H88.3955V18.145H91.4658V21.6606H94.2783V24.2856H91.4658V28.7388C91.4658 29.0044 91.4893 29.2544 91.5361 29.4888C91.5986 29.7075 91.708 29.895 91.8643 30.0513C92.083 30.3013 92.3955 30.4263 92.8018 30.4263C93.0674 30.4263 93.2783 30.4028 93.4346 30.356C93.5908 30.2935 93.7393 30.2153 93.8799 30.1216L94.7471 32.8169C94.3877 32.9888 93.9971 33.1138 93.5752 33.1919C93.1689 33.2856 92.7158 33.3325 92.2158 33.3325C91.6377 33.3325 91.1143 33.2466 90.6455 33.0747C90.1924 32.8872 89.8096 32.6372 89.4971 32.3247C88.7627 31.6216 88.3955 30.6216 88.3955 29.3247V24.2856Z" fill="white"/>
<path d="M82.2061 31.645H82.0186C81.6592 32.2231 81.1748 32.6841 80.5654 33.0278C79.9561 33.356 79.2607 33.52 78.4795 33.52C77.0264 33.52 75.9404 33.0747 75.2217 32.1841C74.5186 31.2935 74.167 30.106 74.167 28.6216V21.6606H77.2373V28.2466C77.2373 29.0747 77.417 29.6919 77.7764 30.0981C78.1514 30.4888 78.6904 30.6841 79.3936 30.6841C79.8154 30.6841 80.1826 30.5981 80.4951 30.4263C80.8232 30.2388 81.0967 29.9966 81.3154 29.6997C81.5498 29.3872 81.7217 29.0278 81.8311 28.6216C81.9561 28.1997 82.0186 27.7544 82.0186 27.2856V21.6606H85.0889V33.145H82.2061V31.645Z" fill="white"/>
<path d="M62.7275 16.3638H73.3682V19.3638H65.8916V23.4419H72.6182V26.4419H65.8916V33.145H62.7275V16.3638Z" fill="white"/>
<path d="M33.334 50.0002V41.6668C37.9451 41.6668 41.6673 37.9446 41.6673 33.3335H50.0007C50.0007 42.5557 42.5284 50.0002 33.334 50.0002Z" fill="#FFD11A"/>
<path d="M33.3337 50.0002V41.6668C28.7225 41.6668 25.0003 37.9446 25.0003 33.3335H16.667C16.667 42.5557 24.1392 50.0002 33.3337 50.0002Z" fill="#FFD11A"/>
<path d="M0 33.333H8.33333C8.33333 37.9441 12.0556 41.6663 16.6667 41.6663V49.9997C7.47222 49.9997 0 42.5552 0 33.333Z" fill="#FFD11A"/>
<path d="M0 33.3332H8.33333C8.33333 28.7221 12.0556 24.9998 16.6667 24.9998V16.6665C7.47222 16.6665 0 24.1387 0 33.3332Z" fill="#FFD11A"/>
<path d="M16.6667 0V8.33333C12.0556 8.33333 8.33333 12.0556 8.33333 16.6667H0C0 7.47222 7.47222 0 16.6667 0Z" fill="#FFD11A"/>
<path d="M16.667 0V8.33333C21.2781 8.33333 25.0003 12.0556 25.0003 16.6667H33.3337C33.3337 7.47222 25.8614 0 16.667 0Z" fill="#FFD11A"/>
<path d="M49.9997 16.6667H41.6663C41.6663 12.0556 37.9441 8.33333 33.333 8.33333V0C42.5275 0 49.9997 7.47222 49.9997 16.6667Z" fill="#FFD11A"/>
<path d="M49.9997 16.6665H41.6663C41.6663 21.2776 37.9441 24.9998 33.333 24.9998V33.3332C42.5275 33.3332 49.9997 25.8887 49.9997 16.6665Z" fill="#FFD11A"/>
</svg>
