<svg width="53" height="53" viewBox="0 0 53 53" fill="none" xmlns="http://www.w3.org/2000/svg">
<rect x="0.333008" y="0.5" width="52" height="52" rx="26" fill="#FFD11A"/>
<path fill-rule="evenodd" clip-rule="evenodd" d="M22.583 18.25L33.833 18.25C34.0319 18.25 34.2227 18.329 34.3633 18.4697C34.504 18.6103 34.583 18.8011 34.583 19V30.25C34.583 30.6642 34.2472 31 33.833 31C33.4188 31 33.083 30.6642 33.083 30.25V20.8107L19.3633 34.5303C19.0704 34.8232 18.5956 34.8232 18.3027 34.5303C18.0098 34.2374 18.0098 33.7626 18.3027 33.4697L32.0223 19.75L22.583 19.75C22.1688 19.75 21.833 19.4142 21.833 19C21.833 18.5858 22.1688 18.25 22.583 18.25Z" fill="#141414"/>
</svg>
