<svg width="50" height="50" viewBox="0 0 50 50" fill="none" xmlns="http://www.w3.org/2000/svg">
<path d="M28.9276 34.4167H21.1221V50.0001H28.9276V34.4167Z" fill="#FFD11A"/>
<path d="M28.9276 0H21.1221V15.5833H28.9276V0Z" fill="#FFD11A"/>
<path d="M34.4092 21.0946V28.9001H49.9925V21.0946H34.4092Z" fill="#FFD11A"/>
<path d="M0 21.1017L0 28.9072H15.5833V21.1017H0Z" fill="#FFD11A"/>
<path d="M34.4246 28.8769L28.9053 34.3962L39.9242 45.4152L45.4436 39.8959L34.4246 28.8769Z" fill="#404040"/>
<path d="M10.0906 4.54564L4.57129 10.0649L15.5903 21.0839L21.1096 15.5646L10.0906 4.54564Z" fill="#404040"/>
<path d="M28.886 15.5886L34.4053 21.1079L45.4243 10.0889L39.9049 4.56961L28.886 15.5886Z" fill="#404040"/>
<path d="M4.55687 39.9197L10.0762 45.439L21.0951 34.42L15.5758 28.9007L4.55687 39.9197Z" fill="#404040"/>
</svg>
