<svg width="51" height="50" viewBox="0 0 51 50" fill="none" xmlns="http://www.w3.org/2000/svg">
<path d="M25.333 35C25.333 40.5228 29.8102 45 35.333 45C40.8559 45 45.333 40.5228 45.333 35C45.333 29.4772 40.8559 25 35.333 25H25.333V35Z" fill="#FFD11A"/>
<path d="M25.333 15C25.333 9.47715 20.8559 5 15.333 5C9.81016 5 5.33301 9.47715 5.33301 15C5.33301 20.5228 9.81016 25 15.333 25H25.333V15Z" fill="#FFD11A"/>
<path fill-rule="evenodd" clip-rule="evenodd" d="M35.333 5C29.8102 5 25.333 9.47715 25.333 15V25H35.333C40.8559 25 45.333 20.5228 45.333 15C45.333 9.47715 40.8559 5 35.333 5ZM40.333 15C40.333 17.7614 38.0944 20 35.333 20C32.5716 20 30.333 17.7614 30.333 15C30.333 12.2386 32.5716 10 35.333 10C38.0944 10 40.333 12.2386 40.333 15Z" fill="#404040"/>
<path fill-rule="evenodd" clip-rule="evenodd" d="M15.333 45C20.8559 45 25.333 40.5228 25.333 35V25H15.333C9.81016 25 5.33301 29.4772 5.33301 35C5.33301 40.5228 9.81016 45 15.333 45ZM20.333 35C20.333 37.7614 18.0944 40 15.333 40C12.5716 40 10.333 37.7614 10.333 35C10.333 32.2386 12.5716 30 15.333 30C18.0944 30 20.333 32.2386 20.333 35Z" fill="#404040"/>
</svg>
